<?xml version="1.0" encoding="UTF-8"?>
<!DOCTYPE svg PUBLIC "-//W3C//DTD SVG 1.1//EN" "http://www.w3.org/Graphics/SVG/1.1/DTD/svg11.dtd">
<!-- Creator: CorelDRAW -->
<svg xmlns="http://www.w3.org/2000/svg" xml:space="preserve" width="49.4452mm" height="27.178mm" version="1.1" style="shape-rendering:geometricPrecision; text-rendering:geometricPrecision; image-rendering:optimizeQuality; fill-rule:evenodd; clip-rule:evenodd"
viewBox="0 0 49.4452 27.178"
 xmlns:xlink="http://www.w3.org/1999/xlink"
 xmlns:xodm="http://www.corel.com/coreldraw/odm/2003">
 <defs>
  <style type="text/css">
   <![CDATA[
    .fil1 {fill:url(#id0);fill-rule:nonzero}
    .fil0 {fill:url(#id1);fill-rule:nonzero}
   ]]>
  </style>
  <linearGradient id="id0" gradientUnits="userSpaceOnUse" x1="32.4194" y1="17.4953" x2="33.7768" y2="18.2391">
   <stop offset="0" style="stop-opacity:1; stop-color:#FAE159"/>
   <stop offset="1" style="stop-opacity:1; stop-color:#FAA11C"/>
  </linearGradient>
  <linearGradient id="id1" gradientUnits="userSpaceOnUse" x1="26.869" y1="-29.3005" x2="34.2006" y2="34.3718">
   <stop offset="0" style="stop-opacity:1; stop-color:#FAE159"/>
   <stop offset="0.0509804" style="stop-opacity:1; stop-color:#FAE159"/>
   <stop offset="0.760784" style="stop-opacity:1; stop-color:#FAE159"/>
   <stop offset="0.909804" style="stop-opacity:1; stop-color:#F49A2F"/>
   <stop offset="1" style="stop-opacity:1; stop-color:#F49A2F"/>
  </linearGradient>
 </defs>
 <g id="Слой_x0020_1">
  <metadata id="CorelCorpID_0Corel-Layer"/>
  <g id="_2140332249888">
   <path class="fil0" d="M49.3735 21.177l-0.0605 -5.5577c-0.0642,-0.3448 -0.4963,-1.0372 -1.0941,-0.9994 -0.3119,0.0084 -0.8623,0.2304 -1.0077,0.8416 -0.0095,0.0644 -0.0201,0.245 0.0037,0.454l0.3042 2.2973c-0.5279,-0.8815 -1.9168,-2.6551 -3.2838,-3.6398 -0.8991,-0.6466 -3.1305,-1.6114 -5.8642,-1.0077 -0.9326,0.2212 -2.7217,0.9959 -4.225,2.6395 -0.9038,-0.1307 -1.9396,0.0117 -2.962,0.6756 -0.6205,0.3895 -1.9624,1.8369 -2.3539,4.5183l-0.2892 -0.7478c-0.8353,-2.1289 -1.8701,-4.7207 -4.2206,-6.5026 -2.3884,-1.8089 -5.8925,-2.6175 -11.3366,-1.8512 -3.6101,0.51 -6.4443,-0.4253 -8.2763,-2.3365 -1.8035,-1.8828 -2.8443,-4.9237 -2.4931,-9.0947 0.0126,-0.1467 -0.2592,-0.6776 -0.8954,-0.7625 -0.7835,-0.1044 -1.2299,0.2942 -1.2434,0.4555 -0.3881,4.5968 0.729,8.3746 3.1385,10.8852 2.4714,2.5759 6.0864,3.5987 10.1824,3.0219 5.1621,-0.7259 9.2683,1.7241 9.2683,1.7241 1.1856,0.7551 2.4908,2.3514 4.4842,7.2413 0.2218,0.7069 1.2023,1.6496 2.548,0.8959 0.2184,-0.1334 0.7197,-0.6183 0.9889,-1.4915 0.1661,-1.0596 0.7341,-3.1153 1.4063,-3.8099 0.1141,-0.0959 0.252,-0.2044 0.4118,-0.3086 -0.8503,1.8624 -1.7463,4.9911 -0.4832,6.936 0.5677,0.8733 1.5412,1.8936 3.5844,1.4666 0.7194,-0.1811 2.2382,-1.1555 2.5606,-3.6208 0.1138,-0.7909 0.0928,-2.2834 -0.455,-3.8632 -0.2576,-0.7387 -0.6284,-1.5101 -1.1565,-2.2269 -0.0756,-0.0867 -0.1658,-0.1743 -0.2668,-0.2639 0.6105,-0.5771 1.3518,-1.0892 2.2013,-1.3496 0.6614,-0.2925 2.4478,-0.6251 4.302,0.398 0.6586,0.4282 2.1535,1.623 2.8476,2.9814l0.0755 0.1375 -2.5165 -1.2913c-0.2508,-0.0766 -0.8368,-0.108 -1.1675,0.3766 -0.1799,0.2984 -0.375,1.0148 0.2765,1.5085l3.4629 1.8884 0.0049 0.0023 1.953 1.0669c0.2697,0.1185 0.9001,0.2398 1.3191,-0.1852 0.0096,-0.0074 0.0215,-0.0138 0.0333,-0.0262 0.006,-0.0062 0.0119,-0.0124 0.0166,-0.0161 0.1241,-0.136 0.2953,-0.5552 0.2773,-1.4593zm-14.2142 -2.0942c0.3924,0.4221 1.1272,1.7578 0.9272,3.724 -0.0971,0.667 -0.4823,1.9374 -0.9952,2.1054 -0.2005,0.0639 -0.6382,0.1866 -1.03,-0.2682 -0.1336,-0.198 -0.4196,-0.6746 -0.3965,-1.7479 0.0263,-0.5806 0.2492,-2.0957 0.9397,-3.5124 0.0742,-0.1507 0.1719,-0.3321 0.2948,-0.5286 0.0837,0.0695 0.1712,0.1438 0.26,0.2277z"/>
   <path class="fil1" d="M34.1509 16.2054c-0.2667,0.3565 -1.1854,1.784 -1.6621,2.5332 -0.3326,0.1981 -0.5446,0.3254 -1.1809,1.7251 0.136,-1.4392 0.4976,-3.5935 0.9331,-4.072 1.0604,-0.3818 1.8683,-0.1843 1.9099,-0.1863 0.0336,-0.045 0.0569,-0.0729 0.0676,-0.0804l-0.0676 0.0804z"/>
  </g>
 </g>
</svg>
