<svg width="173" height="96" viewBox="0 0 173 96" fill="none" xmlns="http://www.w3.org/2000/svg">
<g opacity="0.5">
<mask id="mask0_2482_451" style="mask-type:alpha" maskUnits="userSpaceOnUse" x="1" y="1" width="172" height="93">
<path fill-rule="evenodd" clip-rule="evenodd" d="M86.531 30.8306C85.4733 28.4475 84.1702 26.2076 82.6159 24.1774C89.194 19.7636 96.5076 17.1258 103.997 17.2602C118.297 17.5169 127.017 23.2932 133.418 32.1693C137.321 37.5822 140.412 44.2163 143.158 51.7951L129.378 40.0617C126.244 37.3936 121.654 37.9212 119.124 41.2401C116.595 44.5589 117.085 49.4122 120.218 52.0802L152.334 79.4262C154.22 81.0322 156.74 81.5404 159.057 80.7822C161.834 79.8733 163.779 77.4284 164.484 74.9745L172.166 32.3822C173.337 28.3055 171.163 24.0033 167.311 22.773C163.458 21.5426 159.385 23.85 158.214 27.9267L156.959 46.7506C153.833 38.0527 150.053 29.7824 145.02 22.8031C136 10.2947 123.158 2.18075 104.273 1.84181C91.2718 1.60846 79.4874 6.96023 69.7939 14.8973C67.9475 14.2714 65.9695 13.8189 63.8579 13.5633C54.9867 12.4897 47.8466 14.9548 42.2432 19.5554C36.9084 23.9355 33.3916 29.9051 30.839 35.1146C29.5943 37.6549 28.4942 40.1991 27.531 42.4266L27.4197 42.6841C27.1928 43.2086 26.9752 43.711 26.7649 44.1924C26.5944 40.4159 26.1024 35.623 24.1393 30.8822C21.9531 25.6027 18.1333 20.8285 11.9553 17.3421C8.40565 15.3388 3.98661 16.7611 2.08511 20.5188C0.18362 24.2765 1.51973 28.9466 5.06941 30.9498C8.35198 32.8023 9.89835 34.9641 10.7792 37.0914C11.7536 39.4444 12.1007 42.2091 12.223 45.5539C12.253 46.3743 12.2692 47.1898 12.2847 48.0428L12.2888 48.2642C12.3026 49.0291 12.3173 49.8427 12.3434 50.6278C12.3983 52.2792 12.5132 54.3244 12.9446 56.2879C13.3783 58.2616 14.2904 60.9136 16.4826 63.052C18.8089 65.3211 21.6596 66.1342 24.3208 66.182C28.1142 66.25 31.0587 64.4274 33.1028 62.3731C35.0158 60.4506 36.4379 58.0487 37.5249 55.9452C38.6408 53.7858 39.6978 51.3435 40.6791 49.0745L40.74 48.9336C41.7387 46.6244 42.7077 44.3838 43.7841 42.1871C46.0137 37.6365 48.35 34.0455 51.172 31.7285C52.6042 30.5526 54.2777 29.6058 56.3757 29.1104C53.9695 32.3689 51.8437 35.7383 50.0303 39.1094C44.89 48.6648 41.6852 59.2152 41.9845 68.6766C42.2951 78.4972 46.5786 87.902 56.7517 91.8641C66.4389 95.6369 74.7083 90.697 79.9546 83.9891C85.0977 77.4132 88.4025 68.1439 89.6776 58.9258C90.9548 49.6925 90.3453 39.4244 86.531 30.8306ZM61.8157 77.3924C63.6491 78.1064 65.8309 77.8754 68.7248 74.1753C71.722 70.3432 74.2466 63.9674 75.2485 56.7239C76.2484 49.4956 75.5826 42.4855 73.3278 37.4054C72.7915 36.1971 72.1683 35.0928 71.4423 34.1071C68.0741 37.9446 65.1169 42.2248 62.7021 46.7138C58.3961 54.7183 56.3785 62.4242 56.559 68.1302C56.7281 73.4769 58.6266 76.1503 61.8157 77.3924ZM27.1813 52.8945C27.1813 52.8945 27.1788 52.8839 27.1724 52.8652C27.1779 52.8855 27.1813 52.8945 27.1813 52.8945Z" fill="url(#paint0_linear_2482_451)"/>
</mask>
<g mask="url(#mask0_2482_451)">
<path fill-rule="evenodd" clip-rule="evenodd" d="M86.531 30.8306C85.4733 28.4475 84.1702 26.2076 82.6159 24.1774C89.194 19.7636 96.5076 17.1258 103.997 17.2602C118.297 17.5169 127.017 23.2932 133.418 32.1693C137.321 37.5822 140.412 44.2163 143.158 51.7951L129.378 40.0617C126.244 37.3936 121.654 37.9212 119.124 41.2401C116.595 44.5589 117.085 49.4122 120.218 52.0802L152.334 79.4262C154.22 81.0322 156.74 81.5404 159.057 80.7822C161.834 79.8733 163.779 77.4284 164.484 74.9745L172.166 32.3822C173.337 28.3055 171.163 24.0033 167.311 22.773C163.458 21.5426 159.385 23.85 158.214 27.9267L156.959 46.7506C153.833 38.0527 150.053 29.7824 145.02 22.8031C136 10.2947 123.158 2.18075 104.273 1.84181C91.2718 1.60846 79.4874 6.96023 69.7939 14.8973C67.9475 14.2714 65.9695 13.8189 63.8579 13.5633C54.9867 12.4897 47.8466 14.9548 42.2432 19.5554C36.9084 23.9355 33.3916 29.9051 30.839 35.1146C29.5943 37.6549 28.4942 40.1991 27.531 42.4266L27.4197 42.6841C27.1928 43.2086 26.9752 43.711 26.7649 44.1924C26.5944 40.4159 26.1024 35.623 24.1393 30.8822C21.9531 25.6027 18.1333 20.8285 11.9553 17.3421C8.40565 15.3388 3.98661 16.7611 2.08511 20.5188C0.18362 24.2765 1.51973 28.9466 5.06941 30.9498C8.35198 32.8023 9.89835 34.9641 10.7792 37.0914C11.7536 39.4444 12.1007 42.2091 12.223 45.5539C12.253 46.3743 12.2692 47.1898 12.2847 48.0428L12.2888 48.2642C12.3026 49.0291 12.3173 49.8427 12.3434 50.6278C12.3983 52.2792 12.5132 54.3244 12.9446 56.2879C13.3783 58.2616 14.2904 60.9136 16.4826 63.052C18.8089 65.3211 21.6596 66.1342 24.3208 66.182C28.1142 66.25 31.0587 64.4274 33.1028 62.3731C35.0158 60.4506 36.4379 58.0487 37.5249 55.9452C38.6408 53.7858 39.6978 51.3435 40.6791 49.0745L40.74 48.9336C41.7387 46.6244 42.7077 44.3838 43.7841 42.1871C46.0137 37.6365 48.35 34.0455 51.172 31.7285C52.6042 30.5526 54.2777 29.6058 56.3757 29.1104C53.9695 32.3689 51.8437 35.7383 50.0303 39.1094C44.89 48.6648 41.6852 59.2152 41.9845 68.6766C42.2951 78.4972 46.5786 87.902 56.7517 91.8641C66.4389 95.6369 74.7083 90.697 79.9546 83.9891C85.0977 77.4132 88.4025 68.1439 89.6776 58.9258C90.9548 49.6925 90.3453 39.4244 86.531 30.8306ZM61.8157 77.3924C63.6491 78.1064 65.8309 77.8754 68.7248 74.1753C71.722 70.3432 74.2466 63.9674 75.2485 56.7239C76.2484 49.4956 75.5826 42.4855 73.3278 37.4054C72.7915 36.1971 72.1683 35.0928 71.4423 34.1071C68.0741 37.9446 65.1169 42.2248 62.7021 46.7138C58.3961 54.7183 56.3785 62.4242 56.559 68.1302C56.7281 73.4769 58.6266 76.1503 61.8157 77.3924ZM27.1813 52.8945C27.1813 52.8945 27.1788 52.8839 27.1724 52.8652C27.1779 52.8855 27.1813 52.8945 27.1813 52.8945Z" fill="url(#paint1_linear_2482_451)"/>
<path fill-rule="evenodd" clip-rule="evenodd" d="M56.296 29.2182C56.3329 29.1701 56.3696 29.1225 56.4061 29.0753C56.769 28.6058 57.1112 28.1612 57.4376 27.7371C61.1481 22.9157 62.8152 20.7494 69.771 14.8895C67.9311 14.2676 65.9607 13.8177 63.8577 13.5632C54.9866 12.4896 47.8464 14.9547 42.243 19.5554C36.9083 23.9354 33.3914 29.905 30.8389 35.1145C30.7077 35.3823 30.578 35.6502 30.45 35.9177L42.1196 45.7722C42.6575 44.5619 43.2052 43.3681 43.7839 42.1871C46.0136 37.6365 48.3499 34.0454 51.1718 31.7285C52.604 30.5526 54.2775 29.6057 56.3755 29.1103C56.349 29.1463 56.3225 29.1823 56.296 29.2182Z" fill="url(#paint2_linear_2482_451)" fill-opacity="0.5"/>
<path d="M82.5477 58.742L65.1672 53.087C65.1672 53.087 56.4838 51.066 71.4539 34.1119C75.9438 28.3045 85.5571 20.3126 97.2688 17.8666C119.712 13.3853 121.702 33.4714 121.702 33.4714L82.5477 58.742Z" fill="url(#paint3_linear_2482_451)" fill-opacity="0.4"/>
</g>
</g>
<defs>
<linearGradient id="paint0_linear_2482_451" x1="85.6592" y1="93.5724" x2="87.311" y2="1.53737" gradientUnits="userSpaceOnUse">
<stop stop-color="#FFF930"/>
<stop offset="1" stop-color="#FFD21F"/>
</linearGradient>
<linearGradient id="paint1_linear_2482_451" x1="-13.0284" y1="49.1923" x2="209.646" y2="69.2991" gradientUnits="userSpaceOnUse">
<stop stop-color="white"/>
<stop offset="1" stop-color="white"/>
</linearGradient>
<linearGradient id="paint2_linear_2482_451" x1="30.5318" y1="31.3591" x2="69.4629" y2="32.0578" gradientUnits="userSpaceOnUse">
<stop stop-color="white" stop-opacity="0"/>
<stop offset="1" stop-color="#ADB0F8"/>
</linearGradient>
<linearGradient id="paint3_linear_2482_451" x1="104.108" y1="55.1393" x2="74.0798" y2="30.7575" gradientUnits="userSpaceOnUse">
<stop offset="0.338446" stop-color="white" stop-opacity="0"/>
<stop offset="1" stop-color="#EAEBFD"/>
</linearGradient>
</defs>
</svg>
