<svg width="322" height="419" viewBox="0 0 322 419" fill="none" xmlns="http://www.w3.org/2000/svg">
<path d="M283.672 364.822L306.087 330.133C307.103 327.732 307.265 321.67 303.405 319.453C301.438 318.226 297.117 317.345 293.709 320.536C293.386 320.897 292.58 321.972 291.87 323.365L284.335 338.849C284.678 331.221 283.345 314.535 278.911 302.827C275.99 295.133 266.119 280.003 246.702 272.535C240.016 270.081 225.752 267.545 209.696 271.566C204.631 267.05 197.628 263.685 188.57 263.607C183.127 263.476 168.877 266.944 155.455 281.954L156.729 276.134C160.283 259.516 164.498 239.211 157.239 218.531C149.855 197.527 131.457 178.147 94.5769 160.571C70.1135 148.927 56.3849 131.509 52.8697 112.153C49.4141 93.0896 55.4334 69.9769 74.7138 45.5697C75.3938 44.7116 75.8867 40.3075 72.2917 37.1727C67.8645 33.3124 63.4643 33.9519 62.7191 34.8965C41.4639 61.7915 32.895 89.7831 37.5313 115.222C42.2836 141.319 60.4917 162.482 88.2406 175.704C123.207 192.373 138.606 224.395 138.606 224.395C142.857 233.936 144.399 249.18 136.701 287.657C135.177 292.948 137.387 302.81 148.817 303.657C150.718 303.727 155.813 302.777 161.061 298.47C166.436 292.585 178.386 282.175 185.4 280.626C186.5 280.5 187.8 280.393 189.217 280.403C176.31 288.457 157.928 304.173 157.78 321.404C157.717 329.144 159.566 339.459 173.979 345.192C179.18 347.019 192.588 347.209 204.695 333.253C208.643 328.818 214.633 319.483 217.717 307.447C219.15 301.813 220.015 295.512 219.682 288.904C219.569 288.057 219.369 287.145 219.11 286.174C225.26 285.102 231.955 284.968 238.287 286.838C243.584 287.738 256.019 293.002 263.314 306.945C265.639 312.299 270.004 325.834 268.735 337.099L268.639 338.26L258.339 319.938C257.099 318.435 253.597 315.838 249.56 317.485C247.222 318.596 243.074 322.236 245.087 327.967L258.804 353.87L258.824 353.904L266.552 368.524C267.738 370.365 271.147 373.701 275.486 372.786C275.576 372.779 275.676 372.789 275.8 372.76C275.862 372.746 275.924 372.732 275.969 372.729C277.296 372.394 280.076 370.499 283.672 364.822ZM204.173 293.557C204.874 297.781 203.95 309.072 194.649 320.436C191.312 324.172 183.714 330.465 179.848 329.403C178.342 328.976 175.128 327.942 174.564 323.517C174.548 321.742 174.73 317.616 179.275 311.059C181.819 307.569 189.412 299.094 199.502 293.146C200.579 292.517 201.929 291.793 203.496 291.079C203.729 291.853 203.967 292.672 204.173 293.557Z" fill="url(#paint0_linear_2482_510)"/>
<path d="M209.724 271.589C206.609 272.705 195.061 277.784 189.036 280.472C186.162 280.336 184.326 280.255 174.643 286.32C181.388 277.959 192.463 266.092 197.124 264.912C205.261 266.895 209.457 271.431 209.724 271.589C210.116 271.449 210.375 271.371 210.472 271.369L209.724 271.589Z" fill="url(#paint1_linear_2482_510)"/>
<defs>
<linearGradient id="paint0_linear_2482_510" x1="352.808" y1="-44.0431" x2="133.301" y2="387.36" gradientUnits="userSpaceOnUse">
<stop offset="0.0476406" stop-color="#FAE159"/>
<stop offset="0.759259" stop-color="#FAE159"/>
<stop offset="0.909983" stop-color="#F49A2F"/>
</linearGradient>
<linearGradient id="paint1_linear_2482_510" x1="194.27" y1="272.252" x2="199.35" y2="282.418" gradientUnits="userSpaceOnUse">
<stop stop-color="#FAE159"/>
<stop offset="1" stop-color="#FAA11C"/>
</linearGradient>
</defs>
</svg>
