<svg width="326" height="306" viewBox="0 0 326 306" fill="none" xmlns="http://www.w3.org/2000/svg">
<mask id="mask0_2527_2195" style="mask-type:alpha" maskUnits="userSpaceOnUse" x="24" y="29" width="270" height="239">
<path fill-rule="evenodd" clip-rule="evenodd" d="M142.119 141.441C137.904 139.903 133.562 138.844 129.167 138.35C131.863 124.823 137.635 112.508 147.013 103.303C164.919 85.7244 182.71 81.7518 201.438 84.4023C212.858 86.0187 224.773 90.1171 237.417 95.7824L206.118 98.9315C199 99.6476 193.998 106.023 194.944 113.171C195.891 120.319 202.428 125.534 209.545 124.818L282.492 117.478C286.776 117.047 290.497 114.506 292.42 110.698C294.726 106.132 294.128 100.765 291.995 96.9373L249.368 36.1917C245.824 29.8323 237.889 27.3861 231.645 30.728C225.4 34.07 223.211 41.9344 226.755 48.2939L248.228 72.4631C233.747 65.9308 218.985 60.7291 204.259 58.645C177.868 54.9098 152.148 61.231 128.501 84.4453C112.22 100.427 104.267 121.593 102.046 143.246C99.0094 144.804 96.0227 146.735 93.1124 149.07C80.886 158.877 75.1162 170.767 73.848 183.299C72.6407 195.231 75.6132 206.797 78.8428 216.244C80.4177 220.851 82.1751 225.281 83.7138 229.161L83.8917 229.609C84.254 230.523 84.6004 231.398 84.9304 232.239C80.103 227.918 73.6373 222.779 65.4255 219.543C56.2805 215.939 45.7437 214.985 33.8804 218.526C27.064 220.561 23.3666 227.796 25.6219 234.686C27.8773 241.576 35.2313 245.511 42.0477 243.477C48.3511 241.595 52.8968 242.256 56.5817 243.708C60.6574 245.315 64.4649 248.2 68.7051 252.062C69.7452 253.01 70.7623 253.969 71.8244 254.973L72.1001 255.234C73.0523 256.135 74.0653 257.094 75.0574 258.004C77.1442 259.918 79.7861 262.229 82.7178 264.047C85.6646 265.874 90.0294 267.917 95.3409 267.743C100.977 267.557 105.479 264.968 108.811 261.697C113.561 257.034 114.955 251.162 114.958 246.139C114.96 241.438 113.773 236.776 112.538 232.891C111.271 228.902 109.585 224.648 108.018 220.696L107.92 220.451C106.325 216.429 104.778 212.527 103.416 208.544C100.595 200.291 99.0783 193.058 99.717 186.746C100.041 183.543 100.942 180.313 102.917 177.094C103.941 184.016 105.446 190.72 107.337 197.036C112.697 214.937 121.655 231.613 133.592 242.598C145.982 254 162.751 259.934 180.111 251.966C196.642 244.379 200.775 228.105 199.027 213.489C197.314 199.161 190.045 183.899 180.343 171.236C170.624 158.553 157.319 146.988 142.119 141.441ZM168.646 228.257C171.775 226.821 174.176 223.815 173.212 215.753C172.214 207.403 167.524 196.591 159.899 186.641C152.291 176.712 142.901 169.128 133.915 165.849C131.778 165.07 129.661 164.523 127.563 164.248C128.111 173.068 129.707 181.906 132.225 190.316C136.715 205.312 143.655 217.087 150.854 223.712C157.599 229.92 163.204 230.755 168.646 228.257ZM96.083 242.166C96.083 242.166 96.067 242.156 96.0362 242.142C96.0679 242.159 96.083 242.166 96.083 242.166Z" fill="url(#paint0_linear_2527_2195)"/>
</mask>
<g mask="url(#mask0_2527_2195)">
<path fill-rule="evenodd" clip-rule="evenodd" d="M142.119 141.441C137.904 139.903 133.562 138.844 129.167 138.35C131.863 124.823 137.635 112.508 147.013 103.303C164.919 85.7244 182.71 81.7518 201.438 84.4023C212.858 86.0187 224.773 90.1171 237.417 95.7824L206.118 98.9315C199 99.6476 193.998 106.023 194.944 113.171C195.891 120.319 202.428 125.534 209.545 124.818L282.492 117.478C286.776 117.047 290.497 114.506 292.42 110.698C294.726 106.132 294.128 100.765 291.995 96.9373L249.368 36.1917C245.824 29.8323 237.889 27.3861 231.645 30.728C225.4 34.07 223.211 41.9344 226.755 48.2939L248.228 72.4631C233.747 65.9308 218.985 60.7291 204.259 58.645C177.868 54.9098 152.148 61.231 128.501 84.4453C112.22 100.427 104.267 121.593 102.046 143.246C99.0094 144.804 96.0227 146.735 93.1124 149.07C80.886 158.877 75.1162 170.767 73.848 183.299C72.6407 195.231 75.6132 206.797 78.8428 216.244C80.4177 220.851 82.1751 225.281 83.7138 229.161L83.8917 229.609C84.254 230.523 84.6004 231.398 84.9304 232.239C80.103 227.918 73.6373 222.779 65.4255 219.543C56.2805 215.939 45.7437 214.985 33.8804 218.526C27.064 220.561 23.3666 227.796 25.6219 234.686C27.8773 241.576 35.2313 245.511 42.0477 243.477C48.3511 241.595 52.8968 242.256 56.5817 243.708C60.6574 245.315 64.4649 248.2 68.7051 252.062C69.7452 253.01 70.7623 253.969 71.8244 254.973L72.1001 255.234C73.0523 256.135 74.0653 257.094 75.0574 258.004C77.1442 259.918 79.7861 262.229 82.7178 264.047C85.6646 265.874 90.0294 267.917 95.3409 267.743C100.977 267.557 105.479 264.968 108.811 261.697C113.561 257.034 114.955 251.162 114.958 246.139C114.96 241.438 113.773 236.776 112.538 232.891C111.271 228.902 109.585 224.648 108.018 220.696L107.92 220.451C106.325 216.429 104.778 212.527 103.416 208.544C100.595 200.291 99.0783 193.058 99.717 186.746C100.041 183.543 100.942 180.313 102.917 177.094C103.941 184.016 105.446 190.72 107.337 197.036C112.697 214.937 121.655 231.613 133.592 242.598C145.982 254 162.751 259.934 180.111 251.966C196.642 244.379 200.775 228.105 199.027 213.489C197.314 199.161 190.045 183.899 180.343 171.236C170.624 158.553 157.319 146.988 142.119 141.441ZM168.646 228.257C171.775 226.821 174.176 223.815 173.212 215.753C172.214 207.403 167.524 196.591 159.899 186.641C152.291 176.712 142.901 169.128 133.915 165.849C131.778 165.07 129.661 164.523 127.563 164.248C128.111 173.068 129.707 181.906 132.225 190.316C136.715 205.312 143.655 217.087 150.854 223.712C157.599 229.92 163.204 230.755 168.646 228.257ZM96.083 242.166C96.083 242.166 96.067 242.156 96.0362 242.142C96.0679 242.159 96.083 242.166 96.083 242.166Z" fill="url(#paint1_linear_2527_2195)" fill-opacity="0.4"/>
<path fill-rule="evenodd" clip-rule="evenodd" d="M102.952 177.326C102.938 177.221 102.925 177.117 102.912 177.014C102.785 175.996 102.662 175.034 102.545 174.117C101.214 163.687 100.617 159.001 102.009 143.266C98.9848 144.82 96.0107 146.745 93.1124 149.07C80.886 158.877 75.1161 170.767 73.848 183.3C72.6406 195.231 75.6132 206.797 78.8428 216.244C79.0088 216.73 79.1768 217.213 79.3464 217.695L105.752 214.93C104.934 212.804 104.148 210.686 103.416 208.544C100.595 200.292 99.0783 193.058 99.717 186.747C100.041 183.543 100.942 180.313 102.917 177.094C102.929 177.172 102.94 177.249 102.952 177.326Z" fill="url(#paint2_linear_2527_2195)" fill-opacity="0.5"/>
<path d="M171.347 179.933L143.05 194.883C143.05 194.883 129.896 203.318 127.583 164.239C126.005 151.65 128.06 130.031 139.477 112.445C161.609 78.9923 188.616 100.619 188.616 100.619L171.347 179.933Z" fill="url(#paint3_linear_2527_2195)" fill-opacity="0.4"/>
</g>
<defs>
<linearGradient id="paint0_linear_2527_2195" x1="217.763" y1="217.859" x2="107.261" y2="105.296" gradientUnits="userSpaceOnUse">
<stop stop-color="#FFF930"/>
<stop offset="1" stop-color="#FFD21F"/>
</linearGradient>
<linearGradient id="paint1_linear_2527_2195" x1="42.0888" y1="288.015" x2="341.473" y2="34.6474" gradientUnits="userSpaceOnUse">
<stop stop-color="white"/>
<stop offset="1" stop-color="white"/>
</linearGradient>
<linearGradient id="paint2_linear_2527_2195" x1="73.8731" y1="212.119" x2="122.622" y2="164.263" gradientUnits="userSpaceOnUse">
<stop stop-color="white" stop-opacity="0"/>
<stop offset="1" stop-color="#ADB0F8"/>
</linearGradient>
<linearGradient id="paint3_linear_2527_2195" x1="193.466" y1="148.64" x2="126.557" y2="155.398" gradientUnits="userSpaceOnUse">
<stop offset="0.338446" stop-color="white" stop-opacity="0"/>
<stop offset="1" stop-color="#EAEBFD"/>
</linearGradient>
</defs>
</svg>
