<svg width="1195" height="184" viewBox="0 0 1195 184" fill="none" xmlns="http://www.w3.org/2000/svg">
<path d="M1173.8 62.1001C1171.89 59.3701 1167.82 59.4901 1166.06 62.3101L1161.12 70.2501C1157.89 75.4501 1150.27 75.3201 1147.22 70.0201L1139.91 57.3201C1135.42 49.5201 1124.01 50.0001 1120.18 58.1401C1120.18 58.1401 1116.42 69.1101 1107.6 69.1101C1097.32 69.1101 1085.3 35.9501 1085.3 35.9501C1082.27 28.0401 1071.18 27.7601 1067.76 35.5101L1063.86 44.3401C1058.52 56.4401 1041.69 57.3201 1035.11 45.8401L1031.16 38.9601C1027.22 32.0901 1017.09 32.7801 1014.13 40.1301L1009.77 50.9501C1008.01 55.3101 1003.66 58.0501 998.97 57.7601C985.12 57.7601 985.61 15.5301 977.26 15.5301C965.45 15.5301 972.61 71.7801 960.83 71.7801C949.05 71.7801 946.07 29.0901 937.66 29.0901C929.25 29.0901 930.57 68.4901 917.45 68.4901C905.09 68.4901 904.13 40.3201 894.14 40.3201C884.15 40.3201 888.51 62.8501 875.94 62.8501C863.37 62.8501 869.03 25.5901 857.1 25.5901C845.17 25.5901 846.71 67.7201 833.26 67.7201C829.77 67.7201 826.21 66.0901 824.54 62.2901C824.54 62.2901 819.78 40.4101 808.2 40.4101C796.62 40.4101 796.18 74.3701 784.19 74.3701C772.2 74.3701 771.15 36.6101 757.92 36.6101C754.21 36.6101 750.46 38.5801 748.86 42.7301L745.83 50.5801C742.28 59.7801 729.45 60.2901 725.19 51.4001L722.97 46.7801C721.07 42.8201 717.57 39.8501 713.34 38.6201L711.26 38.0101C708.11 37.1001 705.6 34.7201 704.51 31.6301L695.17 5.21009C692.68 -1.83991 682.67 -1.71991 680.34 5.38009L671.92 31.0401C667.66 44.0201 650.06 45.8701 643.2 34.0501L632.38 15.4201C627.26 6.61009 614.24 7.61009 610.52 17.0901L601.57 39.9001C595.61 55.0901 575.42 58.0901 565.3 45.2901L557.9 35.9301C551.05 27.2601 537.79 27.6201 531.41 36.6501L521.77 50.3101C512.47 63.4801 493.05 63.7901 483.33 50.9201L466.4 28.5001C458.8 18.4401 443.32 19.6701 437.42 30.8201L420.98 61.8801C414.79 73.5701 398.18 73.9501 391.47 62.5501L374.57 33.8801C368.11 22.9101 352.84 21.4101 344.36 30.9101L335.39 40.9601C329.41 47.6601 318.4 45.1801 315.87 36.5601C315.87 36.5601 308.58 6.65009 295.65 6.65009C277.19 6.65009 276.68 65.1101 255.61 67.4501C250.01 68.0701 244.18 65.2301 240.93 59.5201L232.71 45.1101C225.89 33.1501 208.92 32.4501 201.13 43.8001L191.83 57.3601C189.09 61.3501 184.94 63.6601 180.7 63.6601C161.64 63.6601 160.61 19.7101 144.95 19.7101C129.29 19.7101 127.59 60.7201 104.78 60.7201C97.2702 60.8001 89.7102 57.2301 85.2002 49.9101L74.5302 32.5501C70.4002 25.8301 60.6402 25.8301 56.5102 32.5501L55.3002 34.5301C50.4802 42.3801 47.9202 75.7201 39.6902 75.7201C31.4602 75.7201 31.9102 57.9201 21.3202 57.9301C10.7302 57.9501 -0.00976562 91.6301 -0.00976562 91.6301C-0.00976562 91.6301 10.7302 125.32 21.3202 125.33C31.9102 125.35 31.4702 107.54 39.6902 107.54C47.9102 107.54 50.4802 140.88 55.3002 148.73L56.5102 150.71C60.6402 157.43 70.4002 157.43 74.5302 150.71L85.2002 133.35C89.7002 126.03 97.2602 122.46 104.78 122.54C127.59 122.54 129.28 163.55 144.95 163.55C160.62 163.55 161.64 119.6 180.7 119.6C184.94 119.6 189.09 121.91 191.83 125.9L201.13 139.46C208.92 150.81 225.89 150.1 232.71 138.15L240.93 123.74C244.18 118.04 250.01 115.19 255.61 115.81C276.68 118.15 277.19 176.61 295.65 176.61C308.58 176.61 315.87 146.7 315.87 146.7C318.4 138.08 329.41 135.6 335.39 142.3L344.36 152.35C352.84 161.85 368.1 160.35 374.57 149.38L391.47 120.71C398.19 109.31 414.79 109.69 420.98 121.38L437.42 152.44C443.32 163.58 458.8 164.82 466.4 154.76L483.33 132.34C493.04 119.47 512.47 119.78 521.77 132.95L531.41 146.61C537.78 155.64 551.05 156 557.9 147.33L565.3 137.97C575.42 125.16 595.61 128.17 601.57 143.36L610.52 166.17C614.24 175.65 627.27 176.65 632.38 167.84L643.2 149.21C650.06 137.39 667.67 139.24 671.92 152.22L680.34 177.88C682.67 184.98 692.67 185.1 695.17 178.05L704.51 151.63C705.6 148.54 708.12 146.17 711.26 145.25L713.34 144.64C717.56 143.41 721.06 140.45 722.97 136.48L725.19 131.86C729.46 122.97 742.29 123.48 745.83 132.68L748.86 140.53C750.46 144.68 754.21 146.65 757.92 146.65C771.15 146.65 772.2 108.89 784.19 108.89C796.18 108.89 796.63 142.85 808.2 142.85C819.77 142.85 824.54 120.97 824.54 120.97C826.21 117.17 829.77 115.54 833.26 115.54C846.71 115.54 845.16 157.67 857.1 157.67C869.04 157.67 863.1 120.41 875.94 120.41C888.78 120.41 884.15 142.94 894.14 142.94C904.13 142.94 905.09 114.77 917.45 114.77C930.57 114.77 929.26 154.17 937.66 154.17C946.06 154.17 949.05 111.48 960.83 111.48C972.61 111.48 965.45 167.73 977.26 167.73C985.61 167.73 985.11 125.5 998.97 125.5C1003.66 125.21 1008.01 127.96 1009.77 132.31L1014.13 143.13C1017.09 150.48 1027.22 151.17 1031.16 144.3L1035.11 137.42C1041.69 125.95 1058.52 126.83 1063.86 138.92L1067.76 147.75C1071.18 155.5 1082.27 155.22 1085.3 147.31C1085.3 147.31 1097.33 114.15 1107.6 114.15C1116.42 114.15 1120.18 125.12 1120.18 125.12C1124.01 133.27 1135.41 133.74 1139.91 125.94L1147.22 113.24C1150.28 107.93 1157.89 107.81 1161.12 113.01L1166.06 120.95C1167.82 123.78 1171.89 123.89 1173.8 121.16L1194.49 91.6301L1173.8 62.1001Z" fill="black"/>
</svg>
